<svg xmlns="http://www.w3.org/2000/svg" viewBox="0 0 1080 1040.66"><defs><style>.cls-1{fill:#ef3a3c;}.cls-2{fill:#040404;}</style></defs><g id="Layer_2" data-name="Layer 2"><g id="Layer_1-2" data-name="Layer 1"><path class="cls-1" d="M901.69,574.57q-54.65,0-109.29,0c-34.93,0-61-22.82-65.63-57.32-7.29-54-33.17-97.49-77-129.31-71.45-51.89-169.58-44-231,10.47-39.27,34.84-63,77.12-65.36,129.24-3.7,83.41,33.45,145.44,107.55,182.4,56,28,113.78,24.75,169.26-5,18.1-9.72,34.79-21.66,48.36-37.38,12.07-14,38.59-18.24,53-2.75,12.89,13.84,13.44,34.44.37,48.37C675,774,604.8,801.83,521.73,797.32c-27.42-1.49-54.56-6.94-79.24-18.06C369,746.17,316.37,692.45,294,613.78c-25.14-88.44-9.19-170.16,50.81-240.43,52-60.88,119.49-91.73,200.17-90,120.61,2.6,218.8,82.71,246.75,200.13,1.09,4.62,2,9.31,3.43,13.82,2.38,7.44,7.74,11,15.35,9.06s10.5-7.14,9.05-15.18c-22.51-125.08-125.64-220-252.76-232.63C439,245.9,314.23,326.42,273.29,448,220,606.29,310.59,773.48,472.43,814.86c43.39,11.09,87.11,11.2,130.85,1.51,12.82-2.84,25.36-3.2,35.92,6.25,9.82,8.81,15.16,19.75,11.89,33.11-3.53,14.44-12.94,23.89-27.41,27.4-61.73,15-123.06,13.1-184-4.82A342.46,342.46,0,0,1,330.5,824.13C283.17,788.71,246.05,744,221.37,690c-43.29-94.86-45.27-191.31-5.81-287.45,25.79-62.84,68.19-113.81,124.52-152.07,86.92-59,182.45-77.16,284.35-52.2,102.88,25.21,179.17,86.62,229.23,180,18.22,34,29.63,70.49,35.58,108.64.49,3.13,1,6.26,1.7,9.34,1.6,7.07,5.5,11.81,13.31,10.15,7.5-1.6,9.92-7.18,8.87-14.46C904.2,430.3,882.66,373.76,846.34,323c-26.08-36.45-57.13-68-94.61-92.47-107.24-70-221.86-85.07-342.54-41.27-63.85,23.17-118.28,61.49-160.14,115.41C156.88,423.41,138.25,554.2,197.8,691.49c53.78,124,152.36,195.86,285.47,219.88,6.55,1.18,13.21,1.87,19.64,3.51,15.92,4.06,25.93,17.47,25.49,33.5s-12.07,29.22-27.8,32.86c-19.84,4.59-38.07-3.78-57-6.07-31.53-3.79-60.26-17-88.56-29.81A403.11,403.11,0,0,1,276.35,899C211,849.24,161.38,787.43,129.48,711.5A431.67,431.67,0,0,1,96.67,507.72c10.94-138.08,73.68-248.47,185.61-328.94,114.77-82.51,243-104.64,378.52-66.24C802.36,152.67,900.7,244.09,956,380.93c14.07,34.86,21.93,71.37,27.22,108.48.32,2.2.59,4.41,1.1,6.56,2,8.23,7.55,12.3,15.09,10.62,7.89-1.75,10.81-7.06,9.64-14.85-2.34-15.53-6.27-30.83-8.74-46.22-7.57-47.29-24.92-90.82-47.86-132.19C911,238.61,853.51,178.73,779.7,135.61c-103.4-60.39-214.62-80.26-332-55.7-139.53,29.2-245.84,106.57-316.83,230.26-95.84,167-77.42,377.52,44.27,526.37A473.57,473.57,0,0,0,357.35,973.83c18.46,7.94,27.07,27.67,19.89,45.42s-27.62,26.19-46.85,18.61c-23.33-9.2-45.27-21.19-66.92-33.84A517.49,517.49,0,0,1,122.84,883.46c-61.39-75.28-101-161.15-115.9-257.69-18-117-1.21-228.62,53.77-333.6C110.45,197.19,182.18,122.36,275.8,70c117-65.45,242-85.07,373.62-58.57,96.85,19.49,181.49,63.51,254.72,129.66a528.23,528.23,0,0,1,84.29,97.29c53.54,79.45,83.28,167.11,91.24,262.35,3.66,43.82-23.48,73.44-67.75,73.78C975.18,574.8,938.43,574.57,901.69,574.57Z"/><path class="cls-2" d="M602.47,540.73c-.38,34.27-28,61.86-61.72,61.73-34-.12-61.87-28.51-61.72-62.91.16-35.11,29.9-60.64,62.07-60.55C575.31,479.1,602.86,506.81,602.47,540.73Z"/></g></g></svg>